# xmcd
#
# Track frame offsets:
#   150
#   19706
#   39903
#   53009
#   71538
#   87737
#   105116
#   126055
#   144187
#   165962
#   184801
#   204200
#   223321
#   244330
#   261295
#   289865
#   324301
#   339705
#
# Disc length: 4751 seconds
#
# Revision: 0
# Processed by: cddbd v1.5.2PL0 Copyright (c) Steve Scherf et al.
# Submitted via: uFREEDB 1.6.0
#
DISCID=fe128d12
DTITLE=Alanis Morisette - The Collection
DYEAR=2005
DGENRE=Pop
TTITLE0=Thank U
TTITLE1=Head Over Feet
TTITLE2=Eight Easy Steps
TTITLE3=Everything
TTITLE4=Crazy
TTITLE5=Ironic
TTITLE6=Princes Familiar
TTITLE7=You Learn
TTITLE8=Simple Together
TTITLE9=You Oughta Know
TTITLE10=That I Would Be Good
TTITLE11=Sister Blister
TTITLE12=Hands Clean
TTITLE13=Mercy
TTITLE14=Still
TTITLE15=Uninvited
TTITLE16=Lets Do It Lets Fall In Love
TTITLE17=Hand In Pocket
EXTD=
EXTT0=
EXTT1=
EXTT2=
EXTT3=
EXTT4=
EXTT5=
EXTT6=
EXTT7=
EXTT8=
EXTT9=
EXTT10=
EXTT11=
EXTT12=
EXTT13=
EXTT14=
EXTT15=
EXTT16=
EXTT17=
PLAYORDER=
